<svg xmlns="http://www.w3.org/2000/svg" viewBox="0 0 381.74 53.71" width="381.74" height="53.71">
  <path d="M9.07 52.78L0 52.78L0 5.26L9.07 5.26L9.07 52.78ZM29.88 52.78L2.09 52.78L2.09 45L29.88 45L29.88 52.78ZM52.78 53.71L52.78 53.71Q47.23 53.71 42.98 51.44Q38.74 49.18 36.32 44.75Q33.91 40.32 33.91 33.84L33.91 33.84Q33.91 27.22 36.40 22.86Q38.88 18.50 43.13 16.34Q47.38 14.18 52.70 14.18L52.70 14.18Q58.25 14.18 62.50 16.42Q66.74 18.65 69.19 23.08Q71.64 27.50 71.64 34.06L71.64 34.06Q71.64 40.68 69.19 45.07Q66.74 49.46 62.46 51.59Q58.18 53.71 52.78 53.71ZM53.14 46.80L53.14 46.80Q56.16 46.80 58.25 45.40Q60.34 43.99 61.45 41.18Q62.57 38.38 62.57 34.49L62.57 34.49Q62.57 30.38 61.38 27.47Q60.19 24.55 58.00 22.97Q55.80 21.38 52.49 21.38L52.49 21.38Q49.61 21.38 47.45 22.79Q45.29 24.19 44.17 26.93Q43.06 29.66 43.06 33.70L43.06 33.70Q43.06 40.03 45.76 43.42Q48.46 46.80 53.14 46.80ZM88.85 52.78L79.78 52.78L79.78 33.91L79.78 15.12L87.41 15.12L87.26 28.08L88.56 28.08Q89.21 23.47 90.58 20.41Q91.94 17.35 94.39 15.80Q96.84 14.26 100.44 14.26L100.44 14.26Q101.16 14.26 101.99 14.33Q102.82 14.40 103.82 14.69L103.82 14.69L103.46 24.26Q102.31 23.83 101.12 23.65Q99.94 23.47 98.93 23.47L98.93 23.47Q96.12 23.47 94.07 24.91Q92.02 26.35 90.76 28.98Q89.50 31.61 88.85 35.21L88.85 35.21L88.85 52.78ZM131.76 53.71L131.76 53.71Q128.16 53.71 125.57 52.31Q122.98 50.90 121.36 48.31Q119.74 45.72 119.02 42.12L119.02 42.12L117.72 42.12L117.79 52.78L110.16 52.78L110.16 34.27L110.16 1.66L119.23 1.66L119.23 13.82Q119.23 15.55 119.02 17.57Q118.80 19.58 118.44 21.71Q118.08 23.83 117.65 25.99L117.65 25.99L119.16 25.99Q120.10 22.54 121.64 19.91Q123.19 17.28 125.71 15.77Q128.23 14.26 131.90 14.26L131.90 14.26Q136.58 14.26 140.00 16.74Q143.42 19.22 145.30 23.65Q147.17 28.08 147.17 34.13L147.17 34.13Q147.17 40.03 145.33 44.42Q143.50 48.82 140.08 51.26Q136.66 53.71 131.76 53.71ZM128.88 46.22L128.88 46.22Q131.54 46.22 133.56 44.71Q135.58 43.20 136.62 40.46Q137.66 37.73 137.66 33.98L137.66 33.98Q137.66 30.38 136.66 27.65Q135.65 24.91 133.70 23.33Q131.76 21.74 128.95 21.74L128.95 21.74Q127.08 21.74 125.50 22.50Q123.91 23.26 122.76 24.52Q121.61 25.78 120.82 27.29Q120.02 28.80 119.63 30.42Q119.23 32.04 119.23 33.41L119.23 33.41L119.23 34.63Q119.23 36.43 119.81 38.48Q120.38 40.54 121.61 42.26Q122.83 43.99 124.63 45.11Q126.43 46.22 128.88 46.22ZM157.90 53.64L157.90 53.64Q154.94 53.64 153.43 52.34Q151.92 51.05 151.92 48.31L151.92 48.31Q151.92 45.50 153.43 44.21Q154.94 42.91 157.90 42.91L157.90 42.91Q160.99 42.91 162.54 44.21Q164.09 45.50 164.09 48.31L164.09 48.31Q164.09 53.64 157.90 53.64ZM185.47 53.71L185.47 53.71Q181.66 53.71 178.60 52.96Q175.54 52.20 173.38 50.80Q171.22 49.39 169.92 47.41Q168.62 45.43 168.34 42.98L168.34 42.98L175.46 40.32Q175.61 42.19 176.90 43.67Q178.20 45.14 180.50 46.01Q182.81 46.87 186.05 46.87L186.05 46.87Q189.65 46.87 191.63 45.76Q193.61 44.64 193.61 42.55L193.61 42.55Q193.61 41.04 192.53 40.14Q191.45 39.24 189.40 38.63Q187.34 38.02 184.46 37.44L184.46 37.44Q181.80 36.86 179.10 36.11Q176.40 35.35 174.13 34.09Q171.86 32.83 170.46 30.78Q169.06 28.73 169.06 25.56L169.06 25.56Q169.06 22.10 170.89 19.58Q172.73 17.06 176.22 15.62Q179.71 14.18 184.68 14.18L184.68 14.18Q189.36 14.18 192.78 15.48Q196.20 16.78 198.36 19.19Q200.52 21.60 201.10 24.91L201.10 24.91L193.61 27.29Q193.39 25.27 192.24 23.87Q191.09 22.46 189.14 21.74Q187.20 21.02 184.61 21.02L184.61 21.02Q181.30 21.02 179.42 22.18Q177.55 23.33 177.55 25.27L177.55 25.27Q177.55 26.86 178.74 27.79Q179.93 28.73 182.05 29.30Q184.18 29.88 186.91 30.46L186.91 30.46Q189.79 31.03 192.49 31.79Q195.19 32.54 197.35 33.77Q199.51 34.99 200.81 36.97Q202.10 38.95 202.10 42.05L202.10 42.05Q202.10 45.79 200.09 48.42Q198.07 51.05 194.36 52.38Q190.66 53.71 185.47 53.71ZM222.84 53.64L222.84 53.64Q216.86 53.64 214.06 50.44Q211.25 47.23 211.25 40.46L211.25 40.46L211.25 22.39L205.70 22.39L205.85 15.19L209.52 15.19Q211.61 15.19 212.62 14.54Q213.62 13.90 213.84 12.24L213.84 12.24L214.70 6.77L219.96 6.77L219.96 15.12L229.90 15.12L229.90 22.68L219.96 22.68L219.96 40.10Q219.96 42.77 221.22 43.99Q222.48 45.22 225.00 45.22L225.00 45.22Q226.37 45.22 227.70 44.89Q229.03 44.57 230.18 43.78L230.18 43.78L230.18 52.42Q227.95 53.14 226.12 53.39Q224.28 53.64 222.84 53.64ZM250.13 53.71L250.13 53.71Q243.65 53.71 240.37 49.28Q237.10 44.86 237.10 35.86L237.10 35.86L237.10 15.12L246.24 15.12L246.24 34.85Q246.24 40.54 247.97 43.34Q249.70 46.15 253.30 46.15L253.30 46.15Q255.38 46.15 256.97 45.11Q258.55 44.06 259.70 42.16Q260.86 40.25 261.54 37.73Q262.22 35.21 262.37 32.18L262.37 32.18L262.37 15.12L271.44 15.12L271.44 37.30L271.44 52.78L263.95 52.78L264.10 40.90L262.80 40.90Q261.86 45.43 260.17 48.24Q258.48 51.05 256.03 52.38Q253.58 53.71 250.13 53.71ZM295.13 53.71L295.13 53.71Q290.38 53.71 286.88 51.26Q283.39 48.82 281.52 44.39Q279.65 39.96 279.65 33.91L279.65 33.91Q279.65 28.22 281.38 23.80Q283.10 19.37 286.45 16.81Q289.80 14.26 294.77 14.26L294.77 14.26Q298.58 14.26 301.07 15.73Q303.55 17.21 305.14 19.84Q306.72 22.46 307.66 25.99L307.66 25.99L309.17 25.99Q308.74 23.76 308.38 21.53Q308.02 19.30 307.76 17.24Q307.51 15.19 307.51 13.54L307.51 13.54L307.51 1.66L316.66 1.66L316.66 34.27L316.66 52.78L308.95 52.78L309.10 42.12L307.73 42.12Q306.94 45.86 305.28 48.46Q303.62 51.05 301.14 52.38Q298.66 53.71 295.13 53.71ZM298.01 46.22L298.01 46.22Q300.38 46.22 302.18 45.11Q303.98 43.99 305.17 42.26Q306.36 40.54 306.97 38.48Q307.58 36.43 307.58 34.63L307.58 34.63L307.58 33.41Q307.58 32.04 307.19 30.46Q306.79 28.87 306.04 27.32Q305.28 25.78 304.09 24.52Q302.90 23.26 301.36 22.50Q299.81 21.74 297.94 21.74L297.94 21.74Q295.13 21.74 293.18 23.33Q291.24 24.91 290.20 27.65Q289.15 30.38 289.15 34.06L289.15 34.06Q289.15 37.73 290.23 40.46Q291.31 43.20 293.29 44.71Q295.27 46.22 298.01 46.22ZM335.95 52.78L326.88 52.78L326.88 15.12L335.95 15.12L335.95 52.78ZM331.42 9.22L331.42 9.22Q328.68 9.22 327.20 8.03Q325.73 6.84 325.73 4.61L325.73 4.61Q325.73 2.38 327.20 1.19Q328.68 0 331.42 0L331.42 0Q334.30 0 335.74 1.15Q337.18 2.30 337.18 4.61L337.18 4.61Q337.18 6.84 335.70 8.03Q334.22 9.22 331.42 9.22ZM362.88 53.71L362.88 53.71Q357.34 53.71 353.09 51.44Q348.84 49.18 346.43 44.75Q344.02 40.32 344.02 33.84L344.02 33.84Q344.02 27.22 346.50 22.86Q348.98 18.50 353.23 16.34Q357.48 14.18 362.81 14.18L362.81 14.18Q368.35 14.18 372.60 16.42Q376.85 18.65 379.30 23.08Q381.74 27.50 381.74 34.06L381.74 34.06Q381.74 40.68 379.30 45.07Q376.85 49.46 372.56 51.59Q368.28 53.71 362.88 53.71ZM363.24 46.80L363.24 46.80Q366.26 46.80 368.35 45.40Q370.44 43.99 371.56 41.18Q372.67 38.38 372.67 34.49L372.67 34.49Q372.67 30.38 371.48 27.47Q370.30 24.55 368.10 22.97Q365.90 21.38 362.59 21.38L362.59 21.38Q359.71 21.38 357.55 22.79Q355.39 24.19 354.28 26.93Q353.16 29.66 353.16 33.70L353.16 33.70Q353.16 40.03 355.86 43.42Q358.56 46.80 363.24 46.80Z" fill="#000000"/>
</svg>